<svg width="39" height="56" viewBox="0 0 39 56" fill="none" xmlns="http://www.w3.org/2000/svg">
<g id="Logo">
<path id="Vector" d="M1.86002 42.1396H19.3893H36.9185" stroke="#7EB693" stroke-width="2" stroke-miterlimit="10"/>
<path id="Vector_2" d="M5.82055 48.6041L19.3894 48.6041L32.9583 48.6041" stroke="#7EB693" stroke-width="2" stroke-miterlimit="10"/>
<path id="Vector_3" d="M18.8869 1.36435L18.8869 8.40005L18.8869 15.4358" stroke="#7EB693" stroke-width="2" stroke-miterlimit="10"/>
<path id="Vector_4" d="M18.9619 14.7173V41.2837" stroke="#7EB693" stroke-width="2" stroke-miterlimit="10"/>
<path id="Vector_5" d="M30.0781 4.43265L18.9619 15.5734" stroke="#7EB693" stroke-width="2" stroke-miterlimit="10"/>
<path id="Vector_6" d="M34.3535 8.71807L18.9619 24.1437" stroke="#7EB693" stroke-width="2" stroke-miterlimit="10"/>
<path id="Vector_7" d="M36.9187 15.5732L18.9619 32.7128" stroke="#7EB693" stroke-width="2" stroke-miterlimit="10"/>
<path id="Vector_8" d="M37.7738 23.2861L18.9619 42.1397" stroke="#7EB693" stroke-width="2" stroke-miterlimit="10"/>
<path id="Vector_9" d="M37.7737 31.857L27.5127 42.1407" stroke="#7EB693" stroke-width="2" stroke-miterlimit="10"/>
<path id="Vector_10" d="M1.0051 31.857L11.2661 42.1407" stroke="#7EB693" stroke-width="2" stroke-miterlimit="10"/>
<path id="Vector_11" d="M8.70089 4.43265L18.9619 15.5734" stroke="#7EB693" stroke-width="2" stroke-miterlimit="10"/>
<path id="Vector_12" d="M4.42529 8.71807L18.9617 24.1437" stroke="#7EB693" stroke-width="2" stroke-miterlimit="10"/>
<path id="Vector_13" d="M1.86002 14.7173L18.9617 32.7138" stroke="#7EB693" stroke-width="2" stroke-miterlimit="10"/>
<path id="Vector_14" d="M1.0051 22.4302L18.9619 41.2838" stroke="#7EB693" stroke-width="2" stroke-miterlimit="10"/>
<path id="Vector_15" d="M19.3894 54.9949C9.23706 54.9949 1.0051 46.4995 1.0051 36.0179V19.9821C1.0051 9.50241 9.23706 1.0051 19.3894 1.0051C29.5437 1.0051 37.7738 9.50241 37.7738 19.9821V36.0179C37.7756 46.4995 29.5437 54.9949 19.3894 54.9949Z" stroke="#7EB693" stroke-width="2" stroke-miterlimit="10"/>
</g>
</svg>
