<svg width="20" height="19" viewBox="0 0 20 19" fill="none" xmlns="http://www.w3.org/2000/svg">
<g id="Insta">
<path id="Vector" d="M13.976 1.58322C15.0653 1.58635 16.1091 2.00443 16.8793 2.74615C17.6496 3.48786 18.0837 4.49295 18.087 5.54189V13.4584C18.0837 14.5073 17.6496 15.5124 16.8793 16.2541C16.1091 16.9959 15.0653 17.4139 13.976 17.4171H5.75504C4.66576 17.4139 3.62201 16.9959 2.85177 16.2541C2.08152 15.5124 1.64736 14.5073 1.64411 13.4584V5.54189C1.64736 4.49295 2.08152 3.48786 2.85177 2.74615C3.62201 2.00443 4.66576 1.58635 5.75504 1.58322H13.976ZM13.976 0H5.75504C2.5897 0 0 2.49379 0 5.54189V13.4584C0 16.5065 2.5897 19.0003 5.75504 19.0003H13.976C17.1414 19.0003 19.7311 16.5065 19.7311 13.4584V5.54189C19.7311 2.49379 17.1414 0 13.976 0Z" fill="#274C5B"/>
<path id="Vector_2" d="M15.2093 5.5427C14.9654 5.5427 14.727 5.47306 14.5242 5.34257C14.3214 5.21208 14.1633 5.02662 14.07 4.80963C13.9767 4.59264 13.9522 4.35387 13.9998 4.12351C14.0474 3.89316 14.1649 3.68156 14.3373 3.51548C14.5098 3.34941 14.7295 3.2363 14.9687 3.19048C15.208 3.14466 15.4559 3.16818 15.6812 3.25806C15.9066 3.34794 16.0992 3.50015 16.2347 3.69544C16.3702 3.89072 16.4425 4.12032 16.4425 4.35518C16.4429 4.51123 16.4112 4.6658 16.3493 4.81003C16.2875 4.95425 16.1967 5.0853 16.0821 5.19564C15.9675 5.30597 15.8314 5.39343 15.6817 5.45299C15.5319 5.51255 15.3714 5.54304 15.2093 5.5427ZM9.86563 6.3341C10.5161 6.3341 11.1519 6.51983 11.6927 6.86781C12.2335 7.21579 12.655 7.71039 12.904 8.28905C13.1529 8.86772 13.218 9.50447 13.0911 10.1188C12.9642 10.7331 12.651 11.2974 12.1911 11.7403C11.7311 12.1832 11.1452 12.4848 10.5072 12.607C9.86928 12.7292 9.20804 12.6664 8.60712 12.4268C8.0062 12.1871 7.49258 11.7812 7.13122 11.2604C6.76985 10.7396 6.57698 10.1273 6.57698 9.50096C6.57791 8.66133 6.92469 7.85635 7.54123 7.26264C8.15777 6.66894 8.99371 6.335 9.86563 6.3341ZM9.86563 4.75088C8.89003 4.75088 7.93633 5.02947 7.12514 5.55141C6.31395 6.07336 5.6817 6.81522 5.30835 7.68318C4.935 8.55114 4.83732 9.50623 5.02765 10.4277C5.21798 11.3491 5.68778 12.1955 6.37764 12.8598C7.0675 13.5241 7.94644 13.9765 8.9033 14.1598C9.86016 14.343 10.852 14.249 11.7533 13.8895C12.6547 13.5299 13.4251 12.9211 13.9671 12.14C14.5091 11.3588 14.7984 10.4404 14.7984 9.50096C14.7984 8.24116 14.2787 7.03296 13.3536 6.14215C12.4286 5.25134 11.1739 4.75088 9.86563 4.75088Z" fill="#274C5B"/>
</g>
</svg>
