<svg width="39" height="56" viewBox="0 0 39 56" fill="none" xmlns="http://www.w3.org/2000/svg">
<g id="Logo">
<path id="Vector" d="M1.86003 42.1401H19.3893H36.9185" stroke="#7EB693" stroke-width="2" stroke-miterlimit="10"/>
<path id="Vector_2" d="M5.82056 48.6046L19.3894 48.6046L32.9583 48.6046" stroke="#7EB693" stroke-width="2" stroke-miterlimit="10"/>
<path id="Vector_3" d="M18.8869 1.36484L18.8869 8.40054L18.8869 15.4363" stroke="#7EB693" stroke-width="2" stroke-miterlimit="10"/>
<path id="Vector_4" d="M18.962 14.7168V41.2832" stroke="#7EB693" stroke-width="2" stroke-miterlimit="10"/>
<path id="Vector_5" d="M30.0781 4.43314L18.962 15.5739" stroke="#7EB693" stroke-width="2" stroke-miterlimit="10"/>
<path id="Vector_6" d="M34.3535 8.71807L18.962 24.1437" stroke="#7EB693" stroke-width="2" stroke-miterlimit="10"/>
<path id="Vector_7" d="M36.9188 15.5737L18.962 32.7133" stroke="#7EB693" stroke-width="2" stroke-miterlimit="10"/>
<path id="Vector_8" d="M37.7739 23.2866L18.962 42.1402" stroke="#7EB693" stroke-width="2" stroke-miterlimit="10"/>
<path id="Vector_9" d="M37.7737 31.8565L27.5127 42.1403" stroke="#7EB693" stroke-width="2" stroke-miterlimit="10"/>
<path id="Vector_10" d="M1.0051 31.8565L11.2661 42.1403" stroke="#7EB693" stroke-width="2" stroke-miterlimit="10"/>
<path id="Vector_11" d="M8.7009 4.43314L18.9619 15.5739" stroke="#7EB693" stroke-width="2" stroke-miterlimit="10"/>
<path id="Vector_12" d="M4.42529 8.71807L18.9618 24.1437" stroke="#7EB693" stroke-width="2" stroke-miterlimit="10"/>
<path id="Vector_13" d="M1.86003 14.7168L18.9617 32.7134" stroke="#7EB693" stroke-width="2" stroke-miterlimit="10"/>
<path id="Vector_14" d="M1.0051 22.4298L18.9619 41.2833" stroke="#7EB693" stroke-width="2" stroke-miterlimit="10"/>
<path id="Vector_15" d="M19.3895 54.9949C9.23706 54.9949 1.0051 46.4995 1.0051 36.0179V19.9821C1.0051 9.50242 9.23706 1.0051 19.3895 1.0051C29.5437 1.0051 37.7738 9.50242 37.7738 19.9821V36.0179C37.7756 46.4995 29.5437 54.9949 19.3895 54.9949Z" stroke="#7EB693" stroke-width="2" stroke-miterlimit="10"/>
</g>
</svg>
