<svg width="251" height="298" viewBox="0 0 251 298" fill="none" xmlns="http://www.w3.org/2000/svg">
<g id="Group">
<path id="Vector" d="M181.055 4.35323C198.211 30.2039 211.527 58.8232 224.767 86.8467C230.528 99.0296 235.871 111.492 240.05 124.328C243.921 136.28 247.217 149.061 246.667 161.706C246.415 167.73 245.563 176.781 238.995 179.394C234.082 181.344 228.038 179.366 223.233 177.974C214.749 175.486 200.787 169.269 194.909 179.497C191.724 185.059 192.404 191.874 193.623 197.925C195.292 206.098 198.105 213.991 200.267 221.997C202.354 229.77 204.545 238.604 202.379 246.594C200.166 254.697 192.206 260.178 183.893 260.242C174.324 260.296 165.629 253.749 158.249 248.383C151.298 243.296 144.242 237.269 135.898 234.688C127.367 232.07 119.907 235.763 113.679 241.541C105.442 249.146 99.4245 258.863 92.6793 267.733C85.897 276.668 78.7122 284.095 68.4705 289.001C60.5822 292.779 47.3986 297.39 40.4801 289.454C32.9927 280.848 36.6667 265.994 39.4731 256.243C43.0667 243.744 48.2807 231.738 53.1131 219.704C55.033 214.908 56.9064 210.102 58.5283 205.221C58.9638 203.88 57.5565 202.68 56.3371 202.728C47.6992 203.089 38.8542 201.812 30.4827 199.734C22.2975 197.692 12.1371 194.508 6.78373 187.464C0.488401 179.192 7.35321 169.354 14.122 163.901C22.9455 156.752 33.8024 152.404 43.8109 147.209C53.9776 141.948 65.4364 135.421 69.6926 124.095C70.1006 123.015 69.8197 121.87 68.7018 121.284C57.3085 115.167 44.6981 110.672 34.5026 102.543C30.6351 99.474 26.1048 95.1111 26.4693 89.7384C26.9888 82.1217 35.9822 76.5553 41.8699 73.3472C51.9897 67.8356 63.2587 65.1908 74.2944 62.2576C82.0641 60.1745 94.1545 59.1211 96.6074 49.566C97.1628 47.3775 96.3141 46.2888 95.0086 44.6978C92.7611 41.8786 93.6959 38.1441 93.756 34.6711C93.7626 32.8089 93.358 29.8484 94.4168 28.1715C95.5683 26.2711 98.9742 25.5698 100.919 24.9164C113.079 20.7066 125.707 18.163 138.139 14.7816C145.024 12.8855 152.134 11.6875 159.085 9.9496C166.492 8.1089 173.862 6.09133 181.231 4.07376C183.818 3.35456 182.5 -0.610722 179.894 0.0805474C166.663 3.71403 153.384 7.09614 139.975 10.0408C133.6 11.4336 127.311 13.3758 120.983 14.899C114.655 16.4222 108.318 17.9919 102.141 20.1016C97.6281 21.6232 91.2256 22.9137 89.9395 28.2965C89.3012 31.0251 89.5941 34.0602 89.5237 36.8536C89.4728 40.28 88.8356 43.7349 91.0459 46.6193C91.447 47.159 92.5463 47.8377 92.5659 48.4708C92.6906 51.0126 88.0781 54.1358 86.2266 54.8078C80.9235 56.777 74.9861 57.7971 69.4961 59.2451C57.7531 62.3279 45.8708 65.625 35.5292 72.254C29.9585 75.8157 23.6922 81.1749 22.4269 88.0381C21.4664 93.2437 23.9308 98.018 27.3711 101.777C37.6921 113.052 53.6545 118.094 66.8084 125.094C66.4626 124.154 66.1634 123.223 65.8176 122.283C61.4409 133.972 48.6876 140.072 38.2323 145.323C27.5538 150.724 15.5807 155.576 7.23441 164.466C1.36974 170.728 -2.61956 179.977 2.04647 188.045C6.58189 195.918 16.2779 199.858 24.5291 202.42C34.6894 205.605 45.8065 207.383 56.4735 206.918C55.7462 206.071 55.0376 205.252 54.2824 204.424C50.2879 216.504 44.8964 228.063 40.4269 239.976C36.3377 250.948 31.9891 262.739 31.9597 274.592C31.9459 284.294 35.3216 294.84 45.7602 297.354C55.4353 299.692 66.0873 295.279 74.3744 290.588C84.3452 284.974 91.2771 276.505 97.9941 267.411C104.646 258.402 111.044 247.745 120.427 241.312C129.057 235.383 137.403 239.053 145.304 244.354C153.523 249.886 161.063 256.64 170.052 260.971C178.333 264.967 187.336 265.816 195.558 261.209C202.525 257.32 206.415 250.52 207.055 242.661C208.464 225.202 198.48 209.419 196.752 192.401C196.242 187.531 196.66 180.064 202.382 178.42C207.435 176.982 213.61 179.518 218.378 180.976C228.781 184.16 242.684 188.115 248.111 175.28C252.082 165.881 251.004 154.365 249.286 144.609C246.93 131.119 242.48 118.06 237.314 105.439C232.307 93.1156 226.509 81.119 220.497 69.225C212.916 54.1386 205.801 38.7819 197.625 24.0127C193.472 16.5303 189.067 9.21583 184.31 2.09717C183.031 -0.238754 179.544 2.09201 181.055 4.35323Z" fill="#DBDBDB"/>
</g>
</svg>
