<svg width="20" height="20" viewBox="0 0 20 20" fill="none" xmlns="http://www.w3.org/2000/svg">
<g id="Pintrest">
<path id="Vector" d="M10.0023 0C4.47869 0 0 4.47669 0 9.99779C0 14.0906 2.46484 17.6077 5.98795 19.1565C5.96116 18.4602 5.98349 17.6211 6.1621 16.8623C6.35411 16.05 7.4481 11.4127 7.4481 11.4127C7.4481 11.4127 7.1266 10.7744 7.1266 9.83265C7.1266 8.35083 7.98394 7.24393 9.05561 7.24393C9.96653 7.24393 10.4041 7.92682 10.4041 8.7436C10.4041 9.65858 9.81917 11.0243 9.52 12.2919C9.26994 13.3542 10.0514 14.2156 11.1007 14.2156C12.994 14.2156 14.2711 11.7831 14.2711 8.89982C14.2711 6.70834 12.7931 5.07031 10.1094 5.07031C7.07749 5.07031 5.1842 7.3332 5.1842 9.85942C5.1842 10.7298 5.44319 11.3457 5.84506 11.8188C6.02814 12.0375 6.05493 12.1268 5.98795 12.3767C5.93884 12.5597 5.83167 13.0016 5.78255 13.1801C5.71557 13.4345 5.51017 13.5238 5.28244 13.4301C3.8848 12.8588 3.23287 11.3323 3.23287 9.60948C3.23287 6.77082 5.63073 3.36533 10.3818 3.36533C14.1996 3.36533 16.7136 6.12811 16.7136 9.09174C16.7136 13.015 14.5301 15.9429 11.315 15.9429C10.2344 15.9429 9.22082 15.3582 8.87253 14.6976C8.87253 14.6976 8.29204 17.0007 8.16702 17.447C7.95715 18.2192 7.54188 18.9869 7.16233 19.5894C8.08302 19.8609 9.03787 19.9992 9.99778 20C15.5213 20 20 15.5233 20 10.0023C20 4.48115 15.5258 0 10.0023 0Z" fill="#274C5B"/>
</g>
</svg>
