<svg width="137" height="90" viewBox="0 0 137 90" fill="none" xmlns="http://www.w3.org/2000/svg">
<g id="Group">
<path id="Vector" d="M136.222 87.1931C130.126 84.4316 123.771 82.1818 117.935 78.8761C115.091 77.2777 112.401 75.3821 110.087 73.0523C107.503 70.4062 105.777 67.1481 104.035 63.9068C98.598 53.6373 95.7064 42.1986 89.598 32.2754C78.1868 13.7838 56.7961 2.30132 35.4424 0.302242C23.5195 -0.811862 11.4651 1.13146 0.719864 6.50856C-0.943074 7.34111 0.578594 9.77744 2.22582 8.96163C21.6543 -0.736168 45.2809 1.75887 63.8916 12.1119C73.7923 17.6267 82.3687 25.4574 88.069 35.3124C93.7516 45.1193 96.5848 56.2513 102.012 66.1962C105.354 72.3261 109.269 77.0086 115.295 80.6817C121.454 84.4157 128.332 86.7787 134.872 89.7372C136.553 90.4956 137.919 87.9673 136.222 87.1931Z" fill="#E1D4DB"/>
</g>
</svg>
