<svg width="21" height="17" viewBox="0 0 21 17" fill="none" xmlns="http://www.w3.org/2000/svg">
<g id="Twiter">
<path id="Vector" d="M21 1.99063C20.2123 2.33291 19.3788 2.55841 18.526 2.66001C19.4222 2.13517 20.0963 1.30138 20.4216 0.315007C19.5742 0.810517 18.6487 1.15819 17.6846 1.34313C17.2787 0.917677 16.7904 0.579216 16.2496 0.348321C15.7088 0.117426 15.1266 -0.00107946 14.5386 7.40881e-06C12.1577 7.40881e-06 10.2309 1.89876 10.2309 4.23938C10.2293 4.56496 10.2666 4.88956 10.3421 5.20626C8.63481 5.12622 6.96305 4.6907 5.43375 3.92756C3.90445 3.16441 2.55128 2.09045 1.46081 0.774383C1.07825 1.41931 0.875933 2.15515 0.875001 2.90501C0.875001 4.37501 1.64194 5.67439 2.8 6.43564C2.11388 6.41935 1.44182 6.23776 0.840876 5.90626V5.95876C0.840876 8.01501 2.32838 9.72564 4.29713 10.115C3.92691 10.2137 3.5454 10.2637 3.16225 10.2638C2.89038 10.2642 2.61913 10.2379 2.35244 10.185C2.89975 11.8694 4.49269 13.0944 6.37963 13.1294C4.84636 14.311 2.9639 14.9497 1.02813 14.945C0.684521 14.9445 0.341235 14.9241 0 14.8838C1.96927 16.1412 4.25839 16.8064 6.59488 16.8C14.5294 16.8 18.8641 10.3381 18.8641 4.73376C18.8641 4.55001 18.8593 4.36626 18.8506 4.18688C19.6919 3.58841 20.4198 2.84468 21 1.99063Z" fill="#274C5B"/>
</g>
</svg>
