<svg width="186" height="182" viewBox="0 0 186 182" fill="none" xmlns="http://www.w3.org/2000/svg">
<g id="Group">
<path id="Vector" d="M183.617 120.96C172.888 117.267 159.59 110.691 159.47 97.5376C159.401 88.6117 164.523 80.3791 166.983 72.0045C171.712 55.8933 165.602 38.2481 155.308 25.662C144.743 12.7281 129.259 3.5968 112.743 0.850138C104.631 -0.511651 96.2452 -0.276766 88.2909 1.84017C80.3043 3.95815 72.6667 7.91218 65.6053 12.1557C49.8933 21.6333 35.9347 34.328 24.6729 48.8002C13.6138 63.0229 4.66835 79.5439 1.33884 97.409C-0.185314 105.657 -0.530824 114.288 0.944167 122.586C2.73086 132.559 7.63653 141.752 14.0683 149.486C27.2343 165.303 46.8956 175.872 66.8059 180.423C86.6662 184.926 107.083 179.771 121.483 165.134C129.005 157.489 134.025 148.093 138.899 138.653C141.374 133.875 144.309 128.775 149.731 127.014C155.072 125.272 160.57 126.977 165.513 129.104C169.768 130.961 173.81 133.279 178.064 135.104C178.82 135.436 179.542 135.203 180.006 134.507C182.061 131.315 184.515 128.433 185.794 124.795C186.388 123.059 183.597 122.419 183.004 124.155C181.844 127.498 179.37 130.234 177.485 133.178C178.143 132.979 178.769 132.781 179.427 132.581C171.495 129.189 163.65 123.427 154.675 123.454C143.512 123.502 138.913 132.382 134.44 141.161C129.661 150.501 123.931 159.482 115.933 166.429C108.299 173.056 98.8425 177.409 88.8212 178.717C68.2952 181.412 46.3233 172.601 30.0334 160.514C21.7058 154.331 14.3372 146.691 9.33646 137.566C4.66197 129.03 2.68361 119.662 2.88186 109.95C3.23092 92.115 10.4226 74.9532 20.0222 60.1775C30.0862 44.7064 43.3032 31.0955 58.2958 20.377C71.7199 10.7942 87.2398 2.4246 104.154 2.87388C121.003 3.32523 137.42 11.1953 149.169 23.1355C160.566 34.7466 168.534 52.2192 164.822 68.7192C162.931 77.1567 158.228 84.7764 156.877 93.3749C155.42 102.755 159.881 111.184 167.55 116.53C172.221 119.784 177.538 121.915 182.893 123.737C184.728 124.359 185.353 121.552 183.617 120.96Z" fill="#E1D4DB"/>
</g>
</svg>
