<svg width="28" height="32" viewBox="0 0 28 32" fill="none" xmlns="http://www.w3.org/2000/svg">
<g id="Group">
<path id="Vector" d="M27.9804 30.1539C26.8019 22.6966 25.2903 14.4842 20.409 8.4484C17.4261 4.76347 12.992 1.04333 8.20665 0.153098C6.15832 -0.221527 4.01592 0.0422768 2.43208 1.49397C0.610719 3.16505 0.137828 5.75444 0.0158828 8.10454C-0.280824 14.2402 3.60756 19.7863 8.04569 23.6366C12.9025 27.8484 19.247 31.1818 25.7622 31.6421C27.6071 31.7625 27.5006 28.8821 25.6726 28.7774C20.9213 28.4563 16.2045 26.1138 12.3722 23.401C8.22304 20.4538 4.34693 16.3412 3.161 11.2466C2.40905 8.04454 2.75054 2.29847 7.28311 2.91978C11.2424 3.4453 14.9588 6.61807 17.5413 9.48481C22.4882 15.0134 23.981 23.145 25.0989 30.2295C25.3838 32.0452 28.2653 31.9697 27.9804 30.1539Z" fill="#E1D4DB"/>
</g>
</svg>
