<svg width="6" height="9" viewBox="0 0 6 9" fill="none" xmlns="http://www.w3.org/2000/svg">
<g id="Group">
<path id="Vector" d="M2.73534 0.638688C1.55897 2.52112 0.62574 4.634 0.0909351 6.82314C-0.0185919 7.26777 -0.0557371 7.62352 0.133794 8.04751C0.291737 8.40083 0.655296 8.77529 1.01753 8.89599C1.41365 9.0298 1.87163 9.05117 2.23483 8.86055C2.57467 8.68037 2.96582 8.36421 3.07305 7.97714C3.4855 6.26662 4.15852 4.63746 4.98815 3.10786C4.92631 3.22029 4.875 3.35628 4.7898 3.47915C4.95197 3.1523 5.12468 2.849 5.32074 2.53526C5.55299 2.17709 5.66021 1.79001 5.60853 1.36092C5.54402 0.965832 5.28671 0.51561 4.96297 0.292926C4.28158 -0.165556 3.21266 -0.111661 2.73534 0.638688Z" fill="#D3CBCF"/>
</g>
</svg>
