<svg width="6" height="11" viewBox="0 0 6 11" fill="none" xmlns="http://www.w3.org/2000/svg">
<g id="Group">
<path id="Vector" d="M2.48013 1.03741C1.3127 3.60025 0.129672 6.25753 0.00258253 9.14256C-0.0438602 10.0089 0.535248 10.9163 1.46695 10.9955C2.30463 11.0584 3.25157 10.4601 3.30038 9.53444C3.31561 8.85702 3.42485 8.19589 3.5582 7.52399C3.56057 7.46461 3.58704 7.39447 3.61351 7.32432C3.54871 7.76149 3.57144 7.48891 3.58705 7.39447C3.62913 7.22987 3.6712 7.06528 3.71328 6.90069C3.79743 6.5715 3.91654 6.25584 4.01156 5.95096C4.45306 4.67479 5.0103 3.46352 5.56754 2.25224C5.94186 1.47262 5.41807 0.36555 4.6116 0.113761C3.71348 -0.213688 2.88092 0.187638 2.48013 1.03741Z" fill="#D3CBCF"/>
</g>
</svg>
