<svg width="161" height="166" viewBox="0 0 161 166" fill="none" xmlns="http://www.w3.org/2000/svg">
<g id="Group">
<path id="Vector" d="M18.2183 162.092C12.2696 156.766 9.26834 148.539 7.27459 141.02C5.24392 133.421 4.03077 125.42 3.90441 117.553C3.74115 109.606 4.37419 101.585 5.61694 93.7219C6.81252 86.0767 8.65678 78.0342 12.9897 71.4848C16.6938 65.9104 21.1559 62.53 27.8716 61.9986C34.1395 61.5025 40.5319 62.2944 46.672 60.6099C58.3323 57.3803 63.9914 46.8922 68.6121 36.5899C74.2658 23.9518 79.9228 11.2143 94.009 6.40032C107.622 1.78018 123.099 3.85813 135.296 11.2653C147.104 18.4609 156.757 31.4696 157.039 45.7707C157.27 57.2336 148.685 64.5228 140.807 71.4365C131.977 79.2055 124.159 87.8529 124.591 100.397C124.874 107.751 127.621 114.408 130.226 121.18C131.246 123.84 132.447 127.003 131.327 129.844C129.657 133.99 124.359 136.289 120.667 138.042C118.398 139.114 120.011 142.699 122.291 141.597C127.878 138.97 135.162 135.192 135.691 128.172C136.113 122.254 132.273 116.468 130.556 110.999C128.399 104.192 127.471 96.8666 130.243 90.1079C132.421 84.7733 136.554 80.5663 140.744 76.7492C148.815 69.4037 158.502 62.3887 160.554 50.8993C162.961 37.4606 155.29 23.0723 145.731 14.2269C135.135 4.39278 120.459 -0.744896 106.043 0.0874413C90.9817 0.94886 78.7991 8.11292 71.4476 21.3635C65.375 32.336 62.2149 48.3482 50.4123 54.8476C38.8737 61.1764 24.1437 53.8374 14.0862 63.8364C8.0048 69.8721 4.95685 78.0054 3.08731 86.2062C0.865724 95.9883 -0.0592132 106.15 0.00285912 116.175C0.0622155 125.124 1.32936 134.152 3.75167 142.769C6.06667 151.044 9.45003 159.413 15.9578 165.215C17.8122 166.976 20.0761 163.754 18.2183 162.092Z" fill="#D7D7D7"/>
</g>
</svg>
