<svg width="6" height="8" viewBox="0 0 6 8" fill="none" xmlns="http://www.w3.org/2000/svg">
<g id="Group">
<path id="Vector" d="M2.81812 0.96763C2.62102 1.78507 2.33681 2.58743 1.92304 3.33965C1.98215 3.23219 2.03119 3.10222 2.11262 2.98478C1.61522 3.90945 0.978199 4.76146 0.288661 5.55591C0.0588148 5.82073 -0.0379935 6.32322 0.0136001 6.67833C0.0752578 7.05596 0.321182 7.48627 0.630615 7.69911C0.962375 7.90197 1.35105 8.05237 1.74852 7.98275C2.1683 7.90315 2.47299 7.68591 2.75975 7.36864C4.07185 5.80966 5.17168 4.07545 5.64605 2.08059C5.75074 1.65562 5.78625 1.31559 5.60509 0.910346C5.45414 0.572643 5.10664 0.214747 4.76043 0.0993888C4.38182 -0.0285029 3.9441 -0.0489368 3.59696 0.133254C3.28441 0.272971 2.91054 0.575156 2.81812 0.96763Z" fill="#D3CBCF"/>
</g>
</svg>
