<svg width="7" height="10" viewBox="0 0 7 10" fill="none" xmlns="http://www.w3.org/2000/svg">
<g id="Group">
<path id="Vector" d="M3.18295 1.36268C3.1596 1.67161 3.13625 1.98053 3.11289 2.28946C3.09616 2.43261 3.07943 2.57576 3.04027 2.72893C3.02575 2.81683 3.00111 2.88212 2.98659 2.97002C2.98438 3.02527 2.90827 3.27637 2.97427 3.00265C3.04027 2.72894 2.96416 2.98004 2.96196 3.0353C2.94743 3.12319 2.92279 3.18847 2.90827 3.27637C2.86911 3.42955 2.80753 3.59275 2.76837 3.74593C2.67994 4.02968 2.55898 4.30083 2.43801 4.57198C2.36632 4.71257 2.31705 4.84313 2.24536 4.98371C2.1266 5.19961 2.24536 4.98372 2.28231 4.8858C2.23525 4.9611 2.21061 5.02638 2.16355 5.10168C2.01005 5.36025 1.83413 5.62884 1.6582 5.89742C1.48228 6.16601 1.27381 6.422 1.08778 6.66797C0.961118 6.80599 0.85689 6.93399 0.730233 7.07201C0.638318 7.16737 0.434267 7.31285 0.752655 7.06199C0.673058 7.1247 0.626001 7.20001 0.546405 7.26273C0.248236 7.55882 0.0375616 7.87007 0.00979218 8.2895C-0.0381966 8.66371 0.0967196 9.1461 0.360496 9.43521C0.87794 9.99082 1.9134 10.2606 2.53217 9.65837C3.65756 8.50406 4.60006 7.24158 5.28668 5.76785C5.87697 4.49999 6.19686 3.10879 6.25204 1.72738C6.29526 0.921146 5.75632 0.0766674 4.88923 0.00297814C4.08722 -0.04553 3.22838 0.501195 3.18295 1.36268Z" fill="#D3CBCF"/>
</g>
</svg>
