<svg width="98" height="36" viewBox="0 0 98 36" fill="none" xmlns="http://www.w3.org/2000/svg">
<g id="Group">
<path id="Vector" d="M10.107 26.352C36.6817 38.0679 74.3958 41.454 97.5618 20.7237C98.1957 20.1618 98.091 19.1736 97.5708 18.5639C91.9534 12.1154 83.1657 8.67263 75.3154 5.79913C65.9386 2.35356 56.7199 0.0958603 46.6734 0.00310387C37.4124 -0.0859442 29.2161 1.73307 20.9524 5.95925C16.81 8.06625 12.8534 10.5336 8.96905 13.0707C7.24195 14.2105 5.50267 15.3713 3.7845 16.5442C2.57844 17.3662 0.943878 18.0532 0.201217 19.3396C-0.237074 20.0987 0.0826488 20.9581 0.754622 21.4023C3.6892 23.434 7.01094 24.6489 10.107 26.352C11.8194 27.2845 13.3624 24.6607 11.6289 23.7161C8.53279 22.0129 5.21103 20.798 2.28538 18.7996C2.47282 19.4983 2.66026 20.197 2.83878 20.8624C3.33795 19.9978 5.78411 18.8796 6.75074 18.2287C8.36584 17.1368 10.002 16.057 11.6261 14.9984C15.1346 12.7223 18.7155 10.516 22.4521 8.62454C30.422 4.56613 38.279 2.94488 47.2105 3.06862C56.5347 3.19422 65.0408 5.32169 73.7481 8.46506C81.3241 11.1802 89.9673 14.4833 95.4014 20.7135C95.4014 19.9825 95.4103 19.2848 95.4104 18.5537C84.249 28.5297 69.1193 32.222 54.4605 32.4186C39.8561 32.6185 24.9962 29.6062 11.6078 23.704C9.85239 22.9435 8.30943 25.5672 10.107 26.352Z" fill="#DBDBDB"/>
</g>
</svg>
