<svg width="201" height="134" viewBox="0 0 201 134" fill="none" xmlns="http://www.w3.org/2000/svg">
<g id="Group">
<path id="Vector" d="M3.93225 69.1539C3.19274 53.755 11.2026 39.0837 21.3195 28.0104C31.7656 16.5896 45.9396 7.18769 61.3668 4.58864C69.5644 3.20018 77.5774 4.29211 85.2292 7.53058C95.0399 11.7034 103.746 17.1437 114.819 15.7478C124.697 14.5126 134 10.6832 143.707 8.6469C151.126 7.10424 158.88 7.09389 166.256 8.82182C179.769 12.0192 191.654 21.3205 195.514 35.0591C200.089 51.3764 194.275 69.9469 179.285 78.5768C172.407 82.5336 164.622 84.6115 156.86 85.9941C148.85 87.4183 140.51 87.4795 132.859 90.5464C118.625 96.2367 112.645 110.386 101.486 119.765C85.8143 132.938 61.3195 132.244 43.2054 125.329C33.6051 121.67 24.1638 115.689 18.497 106.915C12.867 98.2213 11.0285 87.6802 6.05425 78.6598C4.831 76.4626 1.25542 78.0885 2.50803 80.2967C7.12851 88.6494 9.07086 98.1893 13.7426 106.494C18.4511 114.879 25.8133 121.062 34.2163 125.518C50.8865 134.346 71.6186 136.631 89.6085 130.723C97.7405 128.069 104.374 123.15 110.036 116.797C115.244 110.947 119.551 104.193 125.7 99.228C133.368 93.0489 142.197 92.0288 151.591 90.7482C159.969 89.5943 168.415 87.8955 176.197 84.4749C192.434 77.3469 201.246 62.4029 200.842 44.7472C200.489 29.659 192.306 16.4981 179.055 9.44041C163.993 1.40981 148.013 3.06628 132.202 7.6023C126.675 9.17571 121.115 10.8376 115.425 11.6798C108.749 12.6594 102.829 11.2367 96.7263 8.50532C87.5761 4.44314 78.9859 -0.0486236 68.7127 0.000399401C52.7876 0.0673783 37.5242 7.99236 25.6998 18.2651C13.7217 28.6821 3.77003 42.7343 0.776869 58.5607C0.0637579 62.2872 -0.113872 66.011 0.0643466 69.766C0.202967 72.3662 4.07429 71.6547 3.93225 69.1539Z" fill="#D7D7D7"/>
</g>
</svg>
