<svg width="26" height="24" viewBox="0 0 26 24" fill="none" xmlns="http://www.w3.org/2000/svg">
<g id="Icon">
<path id="Vector" d="M10.8913 23.2421C11.5734 23.2421 12.1264 22.6891 12.1264 22.007C12.1264 21.3249 11.5734 20.7719 10.8913 20.7719C10.2092 20.7719 9.65621 21.3249 9.65621 22.007C9.65621 22.6891 10.2092 23.2421 10.8913 23.2421Z" fill="white" stroke="white" stroke-width="1.5" stroke-linecap="round" stroke-linejoin="round"/>
<path id="Vector_2" d="M19.537 23.2421C20.2191 23.2421 20.7721 22.6891 20.7721 22.007C20.7721 21.3249 20.2191 20.7719 19.537 20.7719C18.8549 20.7719 18.3019 21.3249 18.3019 22.007C18.3019 22.6891 18.8549 23.2421 19.537 23.2421Z" fill="white" stroke="white" stroke-width="1.5" stroke-linecap="round" stroke-linejoin="round"/>
<path id="Vector_3" d="M1.01052 1.01052H4.83221L7.69848 17.2527H22.9852" stroke="white" stroke-width="2" stroke-linecap="round" stroke-linejoin="round"/>
<path id="Vector_4" d="M7.18602 13.3224L22.5936 13.4305C22.7041 13.4306 22.8112 13.3924 22.8967 13.3224C22.9821 13.2524 23.0407 13.1549 23.0624 13.0466L24.7821 4.44776C24.796 4.37842 24.7943 4.30687 24.7772 4.23827C24.7601 4.16966 24.7279 4.10572 24.6831 4.05104C24.6382 3.99637 24.5818 3.95234 24.5179 3.92212C24.4539 3.8919 24.3841 3.87625 24.3134 3.8763L5.62595 3.8763" stroke="white" stroke-width="2" stroke-linecap="round" stroke-linejoin="round"/>
</g>
</svg>
