<svg width="37" height="18" viewBox="0 0 37 18" fill="none" xmlns="http://www.w3.org/2000/svg">
<g id="Group">
<path id="Vector" d="M3.91066 14.3229C12.4453 6.83803 23.7361 1.08928 35.3347 3.81069C34.9728 3.00107 34.6109 2.19145 34.249 1.38182C30.9897 6.48153 25.464 9.92301 19.9342 12.0981C14.4043 14.2732 7.79415 15.5281 2.04286 13.3769C0.186394 12.6957 -0.891461 15.5521 0.965007 16.2333C7.35334 18.6124 14.5525 17.4181 20.757 15.0762C26.9069 12.7319 33.1406 8.83901 36.7296 3.16015C37.3848 2.11173 36.7829 1.00464 35.6439 0.731274C23.2968 -2.16821 11.0269 3.96423 1.94821 11.9082C0.482325 13.238 2.43472 15.6303 3.91066 14.3229Z" fill="#D3CBCF"/>
</g>
</svg>
