<svg width="6" height="10" viewBox="0 0 6 10" fill="none" xmlns="http://www.w3.org/2000/svg">
<g id="Group">
<path id="Vector" d="M2.98917 0.670959C1.20839 2.82136 0.651506 5.58151 0.0187369 8.23451C-0.064996 8.61053 0.142953 9.13832 0.383406 9.42586C0.623859 9.7134 1.04858 9.975 1.44865 9.99367C1.88255 10.0254 2.32104 9.94229 2.63109 9.6344C2.97497 9.3396 3.10304 9.00019 3.18907 8.56671C3.17397 8.6581 3.07972 9.01061 3.18907 8.56671C3.20417 8.47531 3.2426 8.37348 3.2577 8.28208C3.29842 8.1228 3.32863 7.94 3.36934 7.78072C3.45078 7.46216 3.52171 7.12008 3.62646 6.79109C3.78704 6.21142 3.94762 5.63176 4.14203 5.06518C4.22117 4.80407 4.33415 4.55606 4.44712 4.30805C4.50887 4.1958 4.5601 4.06004 4.62184 3.94779C4.64746 3.87991 4.67307 3.81202 4.7092 3.76766C4.8455 3.50922 4.51116 4.13834 4.64746 3.8799C4.93056 3.38655 5.23468 2.94022 5.57264 2.50699C6.10175 1.87545 5.88522 0.702524 5.18162 0.255213C4.4442 -0.205191 3.54389 -0.028467 2.98917 0.670959Z" fill="#D3CBCF"/>
</g>
</svg>
