<svg width="7" height="12" viewBox="0 0 7 12" fill="none" xmlns="http://www.w3.org/2000/svg">
<g id="Group">
<path id="Vector" d="M4.05156 0.955887C3.70985 2.40047 3.12001 3.76758 2.45559 5.08728C2.40892 5.16197 2.38448 5.22672 2.3378 5.30141C2.44337 5.11965 2.3967 5.19434 2.32559 5.33378C2.24227 5.50559 2.14891 5.65498 2.06559 5.82679C1.88891 6.14799 1.68999 6.47913 1.50328 6.77789C1.10544 7.44017 0.685356 8.11239 0.26527 8.78461C-0.154816 9.45683 -0.107445 10.4584 0.638232 10.9324C1.2871 11.369 2.305 11.3177 2.77176 10.5708C4.42986 7.89185 6.1669 5.1507 6.9136 2.04486C7.0179 1.62146 7.05328 1.28269 6.87279 0.87893C6.72239 0.542466 6.37617 0.185881 6.03122 0.0709463C5.31909 -0.148979 4.24795 0.141446 4.05156 0.955887Z" fill="#D3CBCF"/>
</g>
</svg>
