<svg width="26" height="42" viewBox="0 0 26 42" fill="none" xmlns="http://www.w3.org/2000/svg">
<g id="Group">
<path id="Vector" d="M23.6754 39.3828C26.4169 30.8554 26.169 20.3416 23.1251 11.9335C21.025 6.14608 16.2194 -1.39275 8.93582 0.221697C2.55691 1.64469 -0.097833 9.30749 0.00249963 15.1099C0.125209 21.6271 1.99994 28.5276 5.37885 34.1279C7.04267 36.8882 9.29031 39.5974 12.2781 41.0146C15.4146 42.5083 18.7226 42.2077 21.8158 40.7593C23.4987 39.9739 21.9751 37.5343 20.3079 38.303C9.2164 43.4702 3.79846 25.2016 3.02282 17.5668C2.52756 12.6551 3.23796 6.2577 8.11406 3.58164C13.6613 0.52641 18.4014 7.53068 20.0333 11.8695C23.156 20.1937 23.6012 30.2621 20.8755 38.7728C20.3121 40.5146 23.113 41.1571 23.6754 39.3828Z" fill="#E1D4DB"/>
</g>
</svg>
