<svg width="126" height="281" viewBox="0 0 126 281" fill="none" xmlns="http://www.w3.org/2000/svg">
<g id="Group">
<path id="Vector" d="M121.862 1.60605C113.631 38.4464 95.8643 72.4926 79.6514 106.267C71.1597 123.937 62.929 141.756 54.1486 159.296C44.8856 177.804 35.4456 196.229 26.49 214.895C21.5899 225.076 16.8389 235.36 12.358 245.745C10.1221 250.914 7.95151 256.121 5.874 261.346C3.71296 266.748 2.2689 272.317 0.154422 277.729C-0.800729 280.225 2.94398 282.084 3.92703 279.569C5.63333 275.117 6.77154 270.479 8.4965 266.055C10.3606 261.296 12.2899 256.573 14.2937 251.842C18.3012 242.379 22.5323 233.008 26.9124 223.74C35.849 204.804 45.3631 186.127 54.7375 167.423C63.8707 149.204 72.5567 130.798 81.3358 112.411C89.5396 95.2163 98.0134 78.1237 105.714 60.6594C113.971 41.8539 121.455 22.5555 125.931 2.44047C126.579 -0.213658 122.454 -1.01079 121.862 1.60605Z" fill="#DBDBDB"/>
</g>
</svg>
