<svg width="108" height="122" viewBox="0 0 108 122" fill="none" xmlns="http://www.w3.org/2000/svg">
<g id="Group">
<path id="Vector" d="M80.4036 17.4828C69.1226 8.94747 55.5859 1.15156 41.2233 0.0971622C27.6009 -0.911715 16.0521 5.99849 9.47682 17.8913C3.4899 28.7144 1.26097 41.6219 0.389771 53.8687C-0.582741 67.559 0.17003 81.7686 3.7297 95.0999C6.26655 104.533 10.3043 114.639 19.4688 119.334C27.4671 123.449 36.8579 122.209 45.0708 119.586C55.0849 116.4 64.3474 110.996 72.9861 105.091C81.1071 99.5785 89.4477 93.4839 96.1939 86.3276C104.877 77.1224 109.815 64.9667 106.59 52.2654C102.875 37.6322 91.5667 27.6035 81.2694 17.3916C79.8836 16.0214 77.5153 17.9405 78.911 19.3331C87.6659 28.0029 97.2429 36.3051 102.002 48.0248C106.116 58.1237 105.012 68.8346 99.0304 77.8807C93.5619 86.106 85.2713 92.3126 77.4318 98.1562C69.7844 103.833 61.7066 109.084 53.0556 113.113C45.2268 116.774 36.2296 119.908 27.4396 118.675C18.3573 117.385 12.6446 110.689 9.32722 102.492C4.71632 91.1635 3.24877 78.4565 3.06642 66.358C2.87935 53.8314 4.09354 40.9204 8.02807 29.025C12.3985 15.7786 21.5213 4.03765 36.3338 3.11634C51.661 2.15322 66.78 11.0433 78.6125 19.9774C80.2126 21.1711 81.9815 18.6865 80.4036 17.4828Z" fill="#D3CBCF"/>
</g>
</svg>
