<svg width="41" height="28" viewBox="0 0 41 28" fill="none" xmlns="http://www.w3.org/2000/svg">
<g id="Group">
<path id="Vector" d="M40.4579 16.8173C36.029 13.6381 31.5066 10.5921 26.7972 7.81249C21.4242 4.63086 15.4232 1.14371 9.15957 0.187754C6.95179 -0.148781 4.49402 -0.151813 2.59934 1.1944C0.513602 2.67691 -0.0553436 5.29922 0.00424008 7.72247C0.0908326 11.5283 1.19265 15.5297 3.5332 18.5476C6.21319 22.0104 10.046 24.3459 14.1116 25.7951C22.8183 28.8868 34.9597 28.3533 40.3712 19.766C41.3639 18.2044 38.7994 16.8701 37.8224 18.415C33.6054 25.125 23.9502 25.5304 17.0738 23.715C13.2826 22.7128 9.5794 20.8777 6.85371 18.0349C4.39734 15.4764 3.25084 12.1275 2.93002 8.63836C2.82935 7.50223 2.79169 6.29899 3.13156 5.19766C3.33781 4.50748 3.75798 3.89187 4.15582 3.60249C5.41234 2.66725 7.30355 2.76973 9.02253 3.08929C14.6042 4.09954 19.8746 7.12168 24.7151 9.92966C27.5667 11.5966 30.3563 13.3632 33.0987 15.1801C34.1628 15.8949 35.2268 16.6096 36.2919 17.357C36.7416 17.6844 37.1902 17.9794 37.6399 18.3068C38.0393 18.5871 38.3392 18.8054 38.4891 18.9145C39.987 19.9736 41.9726 17.892 40.4579 16.8173Z" fill="#E1D4DB"/>
</g>
</svg>
