<svg width="88" height="49" viewBox="0 0 88 49" fill="none" xmlns="http://www.w3.org/2000/svg">
<g id="Group">
<path id="Vector" d="M12.1406 48.868C41.3639 47.3316 76.4898 33.2228 87.9172 4.1328C88.2513 3.30932 87.5081 2.54141 86.8235 2.25911C78.7449 -1.02164 69.0858 -0.048065 60.6736 0.9678C51.378 2.09475 42.7254 4.01643 34.2095 8.04994C25.6603 12.0924 18.8509 17.2805 13.1482 24.8581C10.219 28.7572 7.66795 32.9311 5.22282 37.1662C4.13474 39.0508 3.05564 40.9688 1.98875 42.8657C1.23973 44.212 0.0840242 45.5776 0.00163591 47.1393C-0.0342507 47.7398 0.499513 48.5279 1.15148 48.622C4.82372 49.161 8.45444 48.7444 12.1406 48.868C14.1095 48.9319 14.095 45.8743 12.126 45.8104C8.72516 45.6821 5.30062 46.133 1.91933 45.6772C2.3056 46.1826 2.68292 46.6545 3.06919 47.1599C3.12792 46.1774 4.94297 43.8655 5.54203 42.8279C6.54779 41.0369 7.55355 39.2459 8.60169 37.4794C10.8235 33.6801 13.1512 29.9419 15.8058 26.4207C21.2583 19.1786 28.0024 14.3481 36.1653 10.5344C44.3161 6.74179 52.6615 5.00975 61.5349 3.97786C69.4703 3.05379 78.4766 2.1833 86.0524 5.25844C85.6849 4.62275 85.3264 4.02046 84.9588 3.38476C79.4538 17.3726 67.505 27.499 54.4505 34.3047C41.4416 41.0804 26.7695 45.0605 12.1472 45.8226C10.1685 45.9224 10.183 48.9801 12.1406 48.868Z" fill="#DBDBDB"/>
</g>
</svg>
