<svg width="5" height="10" viewBox="0 0 5 10" fill="none" xmlns="http://www.w3.org/2000/svg">
<g id="Group">
<path id="Vector" d="M1.07786 1.45164C0.571358 3.67846 0.525606 5.98509 0.0191008 8.21192C-0.0657043 8.59275 0.144907 9.1273 0.38844 9.41852C0.631972 9.70974 1.06214 9.9747 1.46733 9.99361C1.90678 10.0258 2.35089 9.94156 2.66491 9.62973C3.01319 9.33115 3.14291 8.98739 3.23004 8.54836C3.73655 6.32154 3.7823 4.01491 4.28881 1.78808C4.37361 1.40725 4.163 0.872694 3.91947 0.581476C3.67593 0.290257 3.24577 0.0253076 2.84058 0.00639402C2.40112 -0.0257795 1.95702 0.0584353 1.643 0.37027C1.30536 0.692663 1.16499 1.01261 1.07786 1.45164Z" fill="#D3CBCF"/>
</g>
</svg>
