<svg width="39" height="55" viewBox="0 0 39 55" fill="none" xmlns="http://www.w3.org/2000/svg">
<g id="Group">
<path id="Vector" d="M38.9807 52.5071C38.0019 44.7654 37.2277 36.9677 36.6488 29.1605C35.9847 20.3205 35.3762 11.3222 36.0891 2.49024C36.2536 0.442794 33.9815 -0.904584 32.4488 0.725291C22.2862 11.4732 10.5208 20.5474 0.544516 31.4534C-1.27613 33.4371 1.90044 36.1982 3.72108 34.2145C13.6974 23.3085 25.4627 14.2343 35.6254 3.48637C34.415 2.88254 33.1768 2.29737 31.9851 1.72144C31.2353 10.7395 31.7508 19.8403 32.4337 28.8292C33.0222 36.8318 33.806 44.8249 34.813 52.7899C35.1332 55.4418 39.3195 55.1869 38.9807 52.5071Z" fill="#DBDBDB"/>
</g>
</svg>
