<svg width="307" height="315" viewBox="0 0 307 315" fill="none" xmlns="http://www.w3.org/2000/svg">
<g id="Group">
<path id="Vector" d="M2.21559 296.79C48.3253 286.23 93.0618 267.487 125.024 231.239C164.987 185.925 181.374 126.309 207.227 72.9502C214.512 57.8874 222.863 43.5545 232.024 29.5557C238.194 20.1125 246.058 7.54309 257.238 3.67701C256.309 3.03106 255.38 2.38511 254.492 1.72056C254.245 7.15918 250.448 11.5499 246.994 15.4646C243.602 19.3017 240.166 22.9884 237.101 27.1143C229.609 37.2407 223.282 48.3684 217.691 59.6689C209.738 75.724 202.534 92.7274 197.699 110.005C195.236 118.812 193.182 128.138 194.264 137.287C194.395 138.375 195.522 139.027 196.548 138.871C208.295 137.259 219.837 134.13 231.332 131.218C245.075 127.733 258.756 124.056 272.589 120.871C278.282 119.562 283.982 118.324 289.76 117.415C293.446 116.838 297.586 116.026 301.33 116.643C302.048 116.775 303.079 117.057 303.175 117.159C303.3 117.272 303.222 116.942 303.149 117.317C303.128 117.376 302.764 118.716 302.648 118.941C301.808 120.306 297.065 121.664 294.904 122.271C279.817 126.499 264.116 128.69 248.791 131.757C238.295 133.866 227.844 136.126 217.44 138.705C211.964 140.06 206.514 141.526 201.1 143.072C199.529 143.528 197.458 143.8 196.09 144.7C194.527 145.763 193.147 147.866 191.967 149.339C180.475 163.412 172.483 180.291 164.115 196.293C154.792 214.153 144.293 231.041 130.324 245.671C113.932 262.788 94.4746 276.825 72.9985 286.762C51.9763 296.465 29.604 302.786 7.90266 310.628C8.75384 310.944 9.63436 311.27 10.4855 311.586C7.71706 306.806 5.22502 301.19 5.89607 295.507C6.19029 293.002 2.27843 292.658 1.98421 295.163C1.28175 301.471 3.82702 307.844 6.91221 313.211C7.48283 314.193 8.41113 314.57 9.49508 314.168C29.6511 306.892 50.3162 300.944 69.9815 292.38C89.9286 283.686 108.101 271.854 124.144 257.122C139.807 242.784 152.596 225.84 162.721 207.171C171.776 190.486 179.748 173.03 190.697 157.448C193.009 154.183 195.859 149.106 199.649 147.528C204.965 145.342 211.124 144.307 216.692 142.885C227.517 140.16 238.448 137.777 249.402 135.603C265.306 132.415 281.765 130.338 297.306 125.608C300.13 124.744 304.536 123.663 306.043 120.769C306.966 119 307.611 116.357 306.086 114.618C304.285 112.543 300.806 112.561 298.317 112.61C293.538 112.716 288.793 113.538 284.126 114.422C256.861 119.533 230.445 128.477 203.213 133.767C200.77 134.235 198.308 134.663 195.838 135.022C196.613 135.543 197.347 136.084 198.122 136.606C197.144 128.166 199.109 119.443 201.368 111.365C203.943 102.165 207.322 93.2286 210.954 84.4197C218.984 65.0077 228.088 45.7593 240.687 28.8789C246.722 20.793 257.9 12.9712 258.393 2.09392C258.477 0.516328 257.03 -0.354905 255.646 0.137476C246.22 3.41369 239.224 12.6515 233.595 20.4523C225.866 31.1277 218.916 42.4939 212.593 54.0592C198.2 80.4632 187.326 108.54 175.516 136.17C163.426 164.467 150.007 191.935 131.724 216.764C117.318 236.359 98.8339 252.634 77.7775 264.771C54.1335 278.396 28.0206 286.882 1.53509 292.952C-0.901037 293.49 -0.260821 297.347 2.21559 296.79Z" fill="#D7D7D7"/>
</g>
</svg>
