<svg width="6" height="11" viewBox="0 0 6 11" fill="none" xmlns="http://www.w3.org/2000/svg">
<g id="Group">
<path id="Vector" d="M2.38442 1.4854C2.3692 2.16243 2.26002 2.82319 2.12675 3.49472C2.12438 3.55406 2.09792 3.62416 2.07147 3.69427C2.13623 3.25735 2.11352 3.52976 2.09792 3.62416C2.05587 3.78866 2.01381 3.95316 1.97176 4.11767C1.88765 4.44667 1.7686 4.76214 1.67364 5.06686C1.2324 6.3423 0.675471 7.55289 0.118546 8.76348C-0.24471 9.56696 0.267929 10.6491 1.07394 10.9008C1.9607 11.2037 2.81687 10.7919 3.19336 9.95335C4.36012 7.39195 5.54248 4.73617 5.6695 1.85277C5.71591 0.986948 5.13713 0.0800528 4.20595 0.000916212C3.35552 -0.0268906 2.40913 0.571002 2.38442 1.4854Z" fill="#D3CBCF"/>
</g>
</svg>
