<svg width="26" height="49" viewBox="0 0 26 49" fill="none" xmlns="http://www.w3.org/2000/svg">
<g id="Group">
<path id="Vector" d="M9.00255 46.5767C6.27562 44.0129 3.78959 40.909 3.19517 37.1217C2.70616 33.9898 3.64235 30.8693 5.09031 28.1145C8.48378 21.6799 14.1153 16.5956 18.8497 11.1828C21.3196 8.37648 23.7068 5.44499 25.3029 2.0025C24.3366 1.75894 23.348 1.52537 22.3593 1.2918C19.2609 16.5382 21.4719 36.4093 6.46886 45.7638C4.81539 46.8002 6.76036 49.1732 8.4239 48.1593C24.2598 38.2704 22.1321 17.6865 25.4054 1.63243C25.7739 -0.180525 23.1355 -0.568281 22.4518 0.899213C19.37 7.49168 13.3007 12.5555 8.64332 17.9609C4.14667 23.1864 -0.706579 29.652 0.0856108 36.9986C0.582263 41.5862 3.38823 45.4657 6.64268 48.5503C8.06984 49.8848 10.4498 47.9562 9.00255 46.5767Z" fill="#D3CBCF"/>
</g>
</svg>
