<svg width="175" height="216" viewBox="0 0 175 216" fill="none" xmlns="http://www.w3.org/2000/svg">
<g id="Group">
<path id="Vector" d="M58.0623 198.933C41.9695 205.682 23.3632 190.728 13.8613 179.072C8.94704 173.049 4.10741 165.502 3.71095 157.534C3.54756 154.527 4.23131 151.518 6.14155 149.12C8.36372 146.358 12.88 143.762 16.4515 143.979C20.7138 144.248 21.3266 149.951 21.8164 153.218C22.4781 157.579 22.7364 162.162 24.2839 166.314C27.4838 174.865 38.4943 179.567 46.9049 175.886C55.1982 172.245 58.08 161.682 54.7512 153.717C51.1471 145.062 43.1819 138.496 36.2736 132.488C29.6135 126.701 20.0851 120.461 17.3017 111.662C15.2797 105.193 16.606 98.2779 19.681 92.3635C20.226 91.3343 22.1831 86.6839 23.7861 86.6692C23.8773 86.6821 24.9507 88.7122 25.2127 89.2978C28.3974 96.8983 28.7973 106.364 34.3902 112.79C39.6303 118.813 49.5656 120.703 53.9658 112.977C58.4437 105.095 56.2859 96.2828 53.4524 88.3695C51.7209 83.5407 49.4786 77.6449 51.9824 72.6815C53.4484 69.8025 59.5087 64.2363 63.2802 66.4067C67.2083 68.6551 65.5441 75.9873 68.5881 79.161C74.049 84.8712 82.6498 73.287 83.6299 68.833C84.7901 63.3632 83.0955 57.61 81.4934 52.3906C79.6287 46.3251 77.6074 40.1816 76.967 33.8154C76.2603 26.9283 77.9267 20.5727 82.3714 15.1775C86.0752 10.6816 91.3598 7.78547 96.8029 5.81362C101.907 3.93328 108.303 2.40312 113.573 4.57192C118.348 6.55897 119.908 10.7499 117.86 15.2571C115.046 21.4968 106.618 28.6799 109.333 36.2419C110.592 39.73 114.391 42.5644 118.054 42.86C122.095 43.1812 126 41.0938 129.41 39.2153C133.914 36.7106 138.207 33.6462 143.064 31.8703C148.312 29.9638 153.359 31.2735 158.174 33.8334C167.908 39.0052 175.194 50.5985 168.481 61.0089C162.079 70.9242 149.551 69.6615 139.47 72.3153C129.207 75.0084 112.141 89.2056 126.393 98.1875C131.823 101.606 138.278 103.357 144.291 105.473C149.978 107.459 156.838 109.509 161.175 113.944C164.95 117.807 163.989 124.514 159.186 127.227C153.927 130.201 146.297 127.605 141.002 126.01C128.378 122.26 110.75 113.256 98.0615 121.211C89.8238 126.376 87.3724 137.056 90.0389 146.024C93.0731 156.215 103.256 163.887 113.855 159.475C118.776 157.438 122.965 153.801 128.148 152.415C132.993 151.121 139.487 152.403 143.3 155.798C149.281 161.051 144.14 169.286 139.549 173.47C133.033 179.427 124.463 181.728 115.934 179.498C109.492 177.786 98.5985 172.85 93.3095 179.417C87.3706 186.767 94.5542 193.465 99.245 198.694C102.381 202.206 103.133 205.929 99.5049 209.553C96.3193 212.746 91.393 212.765 87.2208 212.053C79.0982 210.642 70.6826 206.55 64.2195 201.414C62.4045 199.957 59.9477 202.668 61.7887 204.137C68.4999 209.495 76.994 213.691 85.4302 215.453C93.3319 217.111 103.871 215.303 105.608 205.797C107.243 196.954 95.4681 194.18 94.8113 186.343C93.8066 174.625 111.849 182.405 117.195 183.572C125.371 185.399 133.966 182.655 140.405 177.506C145.7 173.281 151.04 166.219 149.316 159.02C147.342 150.82 136.282 147.264 128.856 148.574C123.502 149.517 119.183 152.829 114.431 155.242C108.248 158.374 101.704 157.521 97.1034 151.98C90.2419 143.654 90.8194 128.563 101.403 123.526C108.264 120.276 116.753 122.455 123.691 124.413C131.477 126.632 139.069 129.761 147.036 131.354C152.695 132.481 159.486 132.839 163.697 128.173C167.519 123.963 168.416 117.452 164.9 112.808C161.109 107.799 154.404 105.371 148.743 103.268C142.299 100.905 135.466 99.1284 129.424 95.8276C124.492 93.1116 122.698 89.6501 126.571 84.9457C129.625 81.2316 133.645 78.0634 138.203 76.4962C143.359 74.7069 148.872 74.4276 154.213 73.3803C164.491 71.3773 174.028 64.7138 174.706 53.4115C175.334 43.2549 167.611 34.5004 158.973 30.1999C154.589 28.0171 149.568 26.5251 144.67 27.5979C139.812 28.6578 135.439 31.4227 131.235 33.914C127.539 36.1054 122.14 40.2125 117.524 39.1497C112.66 38.0612 111.646 33.4921 113.475 29.558C116.483 23.0577 125.081 15.6661 121.817 7.76618C117.466 -2.78869 103.031 -0.546908 94.7104 2.69096C84.0072 6.8558 74.6685 14.9513 73.2759 26.9706C72.5861 32.9997 73.8774 39.0398 75.4418 44.8582C77.1376 51.1322 79.9283 57.4962 80.2563 64.0321C80.4333 67.2739 79.75 70.4777 77.5272 72.9799C76.5653 74.0616 73.7569 76.9551 72.0364 76.8788C70.1856 76.8027 69.9833 73.8733 69.6279 72.3633C68.3513 67.0133 66.2655 61.1303 59.4791 62.726C54.7899 63.8377 50.1975 67.306 48.2921 71.787C46.3217 76.3332 47.2848 81.3971 48.6899 85.9657C50.1738 90.7687 52.6217 95.4013 52.8028 100.466C52.9554 104.411 52.4588 109.463 49.7422 112.565C46.3108 116.514 40.0486 113.721 37.1087 110.469C34.1426 107.204 32.9321 102.245 31.7236 98.1317C30.6728 94.6173 28.3716 80.2063 21.8499 83.4943C17.6322 85.6211 15.1331 92.6026 13.8786 96.7575C12.21 102.202 12.1196 108.139 14.0479 113.554C17.157 122.287 26.0858 128.488 32.8242 134.314C39.9021 140.439 49.5762 147.694 52.0615 157.222C53.324 162.078 51.6175 168.056 47.5976 171.159C42.7712 174.901 35.7958 173.671 31.3041 170.004C23.8744 163.932 27.2887 152.627 23.2173 144.78C19.2898 137.167 9.23675 140.68 4.3346 145.49C-0.515514 150.26 -0.759837 157.292 1.00097 163.5C5.62662 179.914 21.3789 194.91 36.8764 201.195C43.9206 204.052 51.9256 205.307 59.1257 202.291C61.3915 201.469 60.2366 198.033 58.0623 198.933Z" fill="#DCD3D7"/>
</g>
</svg>
