<svg width="107" height="202" viewBox="0 0 107 202" fill="none" xmlns="http://www.w3.org/2000/svg">
<g id="Group">
<path id="Vector" d="M3.22795 201.455C24.7107 180.688 46.6706 158.245 58.6195 130.396C64.4259 116.842 66.2782 102.681 66.9593 88.0675C67.6522 72.9081 66.6388 56.4125 72.3653 42.1051C75.5712 34.1002 80.5082 26.9247 86.3052 20.5667C89.262 17.3032 92.4274 14.2733 95.7752 11.3991C97.488 9.91651 99.266 8.49877 101.031 7.10703C102.407 6.04043 103.988 4.10333 105.599 3.54307C107.808 2.76136 106.656 -0.666637 104.447 0.115072C101.849 1.02709 100.618 2.78197 98.5415 4.47281C95.6217 6.87895 92.6628 9.23318 89.8863 11.808C84.3465 16.9318 79.328 22.6395 75.1821 28.9438C71.2436 34.962 68.2035 41.5899 66.4906 48.619C64.7133 55.908 64.3931 63.5981 64.0204 71.0674C63.2638 86.7465 63.6521 102.801 59.2929 118.016C54.8432 133.479 46.1128 147.62 36.3649 160.282C25.6188 174.232 13.1793 186.819 0.530967 199.042C-1.15549 200.667 1.56752 203.094 3.22795 201.455Z" fill="#DCD3D7"/>
</g>
</svg>
